<?xml version="1.0" encoding="utf-8"?>
<!-- Generator: Adobe Illustrator 19.1.0, SVG Export Plug-In . SVG Version: 6.00 Build 0)  -->
<svg version="1.1" id="Capa_1" xmlns="http://www.w3.org/2000/svg" xmlns:xlink="http://www.w3.org/1999/xlink" x="0px" y="0px"
	 viewBox="0 0 841.9 595.3" style="enable-background:new 0 0 841.9 595.3;" xml:space="preserve">
<style type="text/css">
	.st0{clip-path:url(#SVGID_2_);fill:#FFFFFF;}
	.st1{clip-path:url(#SVGID_2_);fill:none;stroke:#000000;stroke-width:2.157;}
	.st2{clip-path:url(#SVGID_2_);}
	.st3{clip-path:url(#SVGID_4_);fill:none;stroke:#000000;stroke-width:3.769;}
	.st4{clip-path:url(#SVGID_4_);}
</style>
<g>
	<defs>
		<rect id="SVGID_1_" x="264" y="139.6" width="315.4" height="316.6"/>
	</defs>
	<clipPath id="SVGID_2_">
		<use xlink:href="#SVGID_1_"  style="overflow:visible;"/>
	</clipPath>
	<path class="st0" d="M295.6,140.7c0,0-30.6,0-30.6,30.6v253.3c0,0,0,30.6,30.6,30.6h252.1c0,0,30.6,0,30.6-30.6V171.3
		c0,0,0-30.6-30.6-30.6H295.6z"/>
	<path class="st1" d="M295.6,140.7c0,0-30.6,0-30.6,30.6v253.3c0,0,0,30.6,30.6,30.6h252.1c0,0,30.6,0,30.6-30.6V171.3
		c0,0,0-30.6-30.6-30.6H295.6z"/>
	<path class="st2" d="M484.1,233.3c-0.2,0.6-0.9,3.5-2.2,8.6c-1.2,5.1-2.2,9.3-3.1,12.4c-0.9,3.2-1.4,5.5-1.7,6.9
		c-0.1,0.8,0,1.5,0.4,2.2c0.4,0.6,0.9,1,1.5,1c1.2,0,2.2-1.1,3-3.4c4.6-14.4,6.9-22.9,6.9-25.6c0-0.9-0.3-1.8-1-2.7
		c-0.7-0.9-1.4-1.4-2.2-1.4C485,231.2,484.5,231.9,484.1,233.3 M491.7,220.6c-1-1.8-1.8-2.7-2.6-2.7c-0.7,0-1.4,0.4-2.1,1.1
		c-0.7,0.8-1,1.6-1,2.5c0,0.9,0.6,1.9,1.9,3.2c1.3,1.3,2.4,1.9,3.5,1.9c0.4,0,0.8-0.2,1.2-0.5c0.4-0.3,0.6-0.7,0.6-1.1
		C493.2,223.8,492.7,222.3,491.7,220.6 M468.7,243.1c-0.5,0.2-0.9,0.6-1.1,1.3c-1.4,4.4-3.7,8-6.8,10.8c-3.1,2.8-5.9,4.2-8.3,4.1
		c-0.9,0-1.5-0.3-2.1-0.8c-0.5-0.5-0.8-1.2-0.8-2c0-1.9,0.9-4.5,2.6-7.6c1.7-3.2,3.9-6,6.4-8.5c2.5-2.5,4.7-3.8,6.6-3.8
		c1.1,0,2,0.6,2.6,1.7c0.6,1.1,0.9,2.6,0.9,4.5V243.1z M470.5,234c-1.9-1.9-3.9-2.8-6.1-2.8c-2.8,0-5.9,1.5-9.1,4.6
		c-3.3,3-5.9,6.5-8,10.5c-2.1,3.9-3.1,7.3-3.1,10c0,1.9,0.9,3.8,2.7,5.5c1.8,1.7,3.7,2.6,5.6,2.6c2,0,4.1-0.7,6.4-2.2
		c2.3-1.5,4.3-3.3,6.2-5.6c0.2,5.2,1.1,7.8,2.8,7.8c0.8,0,1.2-0.5,1.4-1.6c0.1-0.5,0.2-1.1,0.2-1.7c0.1-0.6,0.1-1.3,0.2-2.2
		c0.1-0.9,0.2-2,0.4-3.2c0.2-1.2,0.6-2.9,1.3-5.1c0.6-2.2,0.9-3.6,0.9-4.1c0-0.6-0.2-1.2-0.7-1.8c1.1-1.8,1.6-3.4,1.6-4.7
		C473.4,237.8,472.4,235.9,470.5,234 M417.4,259.3l1.5-6.5l0.1,0.1c1.8-4.8,4.2-8.7,7.2-11.8c3-3.1,5.4-4.6,7.2-4.6
		c1.8,0,2.7,2,2.7,6c0,4-2,7.8-6.1,11.4c-4.1,3.6-8,5.4-11.7,5.4C417.8,259.3,417.5,259.3,417.4,259.3 M413.2,276.6
		c0.2-0.9,0.5-1.9,0.8-3.2c0.3-1.3,0.6-2.4,0.8-3.3c0.2-0.9,0.4-2,0.7-3.3c0.3-1.3,0.5-2.3,0.6-2.8v-0.1c0.8,0.3,1.7,0.4,2.8,0.4
		c3,0,6.2-1.1,9.8-3.3c3.6-2.2,6.6-5,9.1-8.5c2.5-3.4,3.8-6.7,3.8-9.7c0-3-0.7-5.8-2.1-8.2c-1.4-2.4-3-3.6-4.9-3.6
		c-4.2,0-8.4,2.8-12.5,8.4c0.3-1.4,0.5-2.5,0.5-3.2c0-1.5-0.6-2.8-1.6-3.8c-1.1-1.1-1.9-1.6-2.4-1.6c-0.6,0-1,0.1-1.2,0.3
		c-0.2,0.2-0.4,0.8-0.5,1.7c-0.4,8-2.7,20-6.7,36c-1.3,5.1-2,8.1-2,8.9c0,0.8,0.3,1.7,1,2.6c0.7,0.9,1.2,1.3,1.6,1.3
		c0.4,0,0.7-0.2,1-0.6c0.2-0.4,0.5-1.1,0.8-1.9C412.7,278.3,413,277.5,413.2,276.6 M402.5,231.2c-2.5,0-5.5,1.3-9.2,3.8
		c-3.7,2.5-5.5,5-5.5,7.4c0,1.3,0.6,2.7,1.9,4c1.3,1.3,2.7,2.4,4.3,3.3c1.6,0.9,3,1.9,4.3,3.1c1.3,1.2,2,2.3,2,3.3
		c0,1.1-0.6,1.9-1.8,2.6c-1.2,0.6-3,1-5.5,1c-2.5,0-4.9-0.8-7.3-2.4c-1.2-0.8-2-1.2-2.5-1.2c-0.9,0-1.4,0.6-1.4,1.9
		c0,1.3,1.2,2.7,3.7,4.2c2.4,1.5,5.3,2.3,8.5,2.3c3.2,0,6-0.8,8.4-2.5c2.4-1.6,3.6-3.4,3.6-5.1c0-1.8-0.7-3.5-2-5
		c-1.3-1.5-2.7-2.8-4.3-3.7c-1.5-1-3-1.9-4.3-2.9c-1.3-1-2-1.8-2-2.5c0-1.4,1.2-2.8,3.5-4.1c2.3-1.3,4-1.9,5.1-1.9
		c1.1,0,2.2,0.4,3.2,1.2c1,0.8,1.8,1.2,2.3,1.2c0.7,0,1-0.5,1-1.4c0-1-0.7-2.3-2-3.9C405.4,232.1,404,231.2,402.5,231.2
		 M375.2,238.2c1.1,1.3,1.7,2.6,1.7,3.9c0,1.3-0.8,2.3-2.5,3c-1.7,0.7-3.7,1.1-6.1,1.1c-2.4,0-4.6-0.2-6.5-0.6
		c1.3-2.6,2.8-4.9,4.6-6.7c1.8-1.8,3.6-2.7,5.4-2.7C373,236.2,374.1,236.9,375.2,238.2 M378.6,235c-2.2-2.5-4.5-3.7-7.2-3.7
		c-2.6,0-5.3,1.2-8,3.5c-2.7,2.4-4.9,5.3-6.6,8.7s-2.5,6.8-2.5,10c0,3.2,1.1,5.8,3.3,7.8c2.2,2.1,5,3.1,8.4,3.1
		c2.6,0,5.2-0.7,7.9-2.1c2.7-1.4,4.1-2.6,4.1-3.8c0-0.9-0.6-1.3-1.7-1.3c-0.3,0-1.6,0.4-3.9,1.2c-2.3,0.8-4.6,1.2-6.8,1.2
		c-2.2,0-3.8-0.4-4.8-1.3c-1-0.9-1.5-2.2-1.5-3.8c0-1.6,0.3-3.4,0.9-5.4c3,0.8,6,1.1,9.1,1.1c3.1,0,6-0.7,8.5-2.2
		c2.6-1.5,3.8-3.4,3.8-5.8C381.9,239.9,380.8,237.4,378.6,235"/>
	<path class="st2" d="M530.7,283.8c11.1,0,20.3,9.2,20.3,20.4c0,11.4-9.1,20.5-20.4,20.5c-11.1,0-20.1-9.2-20.1-20.8
		C510.5,293.1,519.8,283.8,530.7,283.8 M530.7,272c-17.6,0-32,14.3-32,31.8c0,8.7,2.8,16.3,8.1,22.2c6,6.7,14.8,10.6,23.7,10.6
		c18.2,0,32.3-14.1,32.3-32.4C562.8,286.2,548.7,272,530.7,272"/>
</g>
<polygon points="419,272.2 432.5,337.1 445.8,337.1 457.2,296.1 468.5,337.1 481.8,337.1 495.3,272.2 482.4,272.2 474.5,311.9 
	463.4,272.2 451,272.2 439.8,311.9 431.9,272.2 "/>
<polygon points="290.4,272.2 290.4,337.1 302.8,337.1 302.8,318.9 316,304.1 335.9,337.1 350.1,337.1 324.5,294.9 344.6,272.2 
	328.1,272.2 302.8,300.9 302.8,272.2 "/>
<g>
	<defs>
		<rect id="SVGID_3_" x="264" y="139.6" width="315.4" height="316.6"/>
	</defs>
	<clipPath id="SVGID_4_">
		<use xlink:href="#SVGID_3_"  style="overflow:visible;"/>
	</clipPath>
	<circle class="st3" cx="380" cy="304.9" r="32.4"/>
	<path class="st4" d="M384.9,288.3c0,0,0.3-2.4-0.5-0.1l-2.7,7.5c0,0-0.8,2.3-1.6,0l-2.7-7.5c0,0-0.8-2.3-0.5,0.1l0.9,7.9
		c0,0,0.3,2.4-1.5,0.7l-5.8-5.7c0,0-1.7-1.7-0.4,0.3l4.4,6.8c0,0,1.3,2-1,1.3l-7.8-2.7c0,0-2.3-0.8-0.2,0.5l7,4.3
		c0,0,2.1,1.3-0.3,1.5l-8.3,0.9c0,0-2.4,0.3,0,0.5l8.3,0.9c0,0,2.4,0.3,0.3,1.5l-7,4.3c0,0-2.1,1.3,0.2,0.5l7.8-2.7
		c0,0,2.3-0.8,1,1.3l-4.4,6.8c0,0-1.3,2,0.4,0.3l5.8-5.7c0,0,1.7-1.7,1.5,0.7l-0.9,7.9c0,0-0.3,2.4,0.5,0.1l2.7-7.5
		c0,0,0.8-2.3,1.6,0l2.7,7.5c0,0,0.8,2.3,0.5-0.1l-0.9-7.9c0,0-0.3-2.4,1.5-0.7l5.8,5.7c0,0,1.7,1.7,0.4-0.3l-4.4-6.8
		c0,0-1.3-2,1-1.3l7.8,2.7c0,0,2.3,0.8,0.2-0.5l-7-4.3c0,0-2.1-1.3,0.3-1.5l8.3-0.9c0,0,2.4-0.3,0-0.5l-8.3-0.9c0,0-2.4-0.3-0.3-1.5
		l7-4.3c0,0,2.1-1.3-0.2-0.5l-7.8,2.7c0,0-2.3,0.8-1-1.3l4.4-6.8c0,0,1.3-2-0.4-0.3l-5.8,5.7c0,0-1.7,1.7-1.5-0.7L384.9,288.3z"/>
	<path class="st4" d="M365.6,302.5c-0.6-0.3-1.3-1.6,0.5-1.8c1.7-0.2,3.2,1.7,3.2,1.7S366.2,302.8,365.6,302.5"/>
	<path class="st4" d="M381.8,289.8c-0.1-0.7-1.3-1.5-1.9,0.1c-0.6,1.6,0.9,3.4,0.9,3.4S382,290.5,381.8,289.8"/>
	<path class="st4" d="M388.4,291.8c0.2-0.7-0.4-2-1.7-0.9c-1.3,1.1-0.9,3.4-0.9,3.4S388.2,292.4,388.4,291.8"/>
	<path class="st4" d="M368,295.8c-0.4-0.5-0.4-1.9,1.3-1.3c1.7,0.6,2.1,2.9,2.1,2.9S368.4,296.3,368,295.8"/>
	<path class="st4" d="M373.1,291.7c-0.2-0.7,0.5-1.9,1.8-0.7c1.3,1.3,0.6,3.5,0.6,3.5S373.3,292.3,373.1,291.7"/>
	<path class="st4" d="M366.6,308.9c-0.7,0-1.8-0.9-0.3-1.8c1.5-0.9,3.6,0.2,3.6,0.2S367.3,308.9,366.6,308.9"/>
	<path class="st4" d="M373.3,318.1c-0.1,0.7,0.8,1.8,1.9,0.5s0.1-3.5,0.1-3.5S373.4,317.5,373.3,318.1"/>
	<path class="st4" d="M368.1,313.7c-0.3,0.6,0,2,1.5,1.2c1.5-0.8,1.5-3.2,1.5-3.2S368.5,313.1,368.1,313.7"/>
	<path class="st4" d="M386.8,318.4c0.5,0.4,2,0.3,1.4-1.3c-0.6-1.6-2.9-2-2.9-2S386.2,318,386.8,318.4"/>
	<path class="st4" d="M379.8,319.9c0.2,0.6,1.5,1.3,1.9-0.4s-1.4-3.2-1.4-3.2S379.6,319.3,379.8,319.9"/>
	<path class="st4" d="M395.6,306.2c0.6,0.3,1.3,1.5-0.5,1.8c-1.7,0.3-3.2-1.5-3.2-1.5S395,306,395.6,306.2"/>
	<path class="st4" d="M393.4,312.9c0.3,0.6,0.1,2-1.5,1.1c-1.6-0.8-1.6-3.1-1.6-3.1S393,312.3,393.4,312.9"/>
	<path class="st4" d="M392.2,294.9c0.7-0.2,2,0.4,0.8,1.7c-1.2,1.3-3.5,0.8-3.5,0.8S391.5,295.1,392.2,294.9"/>
	<path class="st4" d="M395.4,300.6c0.7,0.1,1.7,1.2,0,1.9c-1.6,0.7-3.5-0.7-3.5-0.7S394.7,300.5,395.4,300.6"/>
</g>
</svg>
