<?xml version="1.0" encoding="utf-8"?>
<!-- Generator: Adobe Illustrator 19.1.0, SVG Export Plug-In . SVG Version: 6.00 Build 0)  -->
<svg version="1.1" id="Capa_1" xmlns="http://www.w3.org/2000/svg" xmlns:xlink="http://www.w3.org/1999/xlink" x="0px" y="0px"
	 viewBox="0 0 226.8 226.8" style="enable-background:new 0 0 226.8 226.8;" xml:space="preserve">
<style type="text/css">
	.st0{clip-path:url(#SVGID_2_);fill:none;stroke:#ffffff;stroke-width:1.529;}
	.st1{clip-path:url(#SVGID_4_);fill:#ffffff;stroke:#ffffff;}
	.st2{clip-path:url(#SVGID_6_);fill:none;stroke:#ffffff;stroke-width:2.672;}
	.st3{clip-path:url(#SVGID_6_);fill:#ffffff;stroke:#ffffff;}
</style>
<g>
	<g>
		<defs>
			<rect id="SVGID_1_" x="1.5" y="1.3" width="223.8" height="224.5"/>
		</defs>
		<clipPath id="SVGID_2_">
			<use xlink:href="#SVGID_1_"  style="overflow:visible;"/>
		</clipPath>
		<path class="st0" d="M24,2C24,2,2.3,2,2.3,23.7v179.6c0,0,0,21.7,21.7,21.7h178.7c0,0,21.7,0,21.7-21.7V23.7c0,0,0-21.7-21.7-21.7
			H24z"/>
	</g>
	<g>
		<defs>
			<rect id="SVGID_3_" x="1.5" y="1.3" width="223.8" height="224.5"/>
		</defs>
		<clipPath id="SVGID_4_">
			<use xlink:href="#SVGID_3_"  style="overflow:visible;"/>
		</clipPath>
		<path class="st1" d="M82.8,68.8c-1.5-1.8-3.2-2.6-5.1-2.6c-1.9,0-3.7,0.8-5.6,2.5c-1.9,1.7-3.5,3.7-4.6,6.2
			c-1.2,2.5-1.8,4.8-1.8,7.1c0,2.2,0.8,4.1,2.3,5.6c1.6,1.5,3.5,2.2,6,2.2c1.8,0,3.7-0.5,5.6-1.5c1.9-1,2.9-1.9,2.9-2.7
			c0-0.6-0.4-0.9-1.2-0.9c-0.2,0-1.1,0.3-2.8,0.9c-1.7,0.6-3.2,0.9-4.8,0.9c-1.5,0-2.7-0.3-3.4-1c-0.7-0.6-1.1-1.5-1.1-2.7
			c0-1.2,0.2-2.4,0.7-3.8c2.1,0.5,4.3,0.8,6.5,0.8c2.2,0,4.2-0.5,6.1-1.6c1.8-1,2.7-2.4,2.7-4.1S84.3,70.6,82.8,68.8 M80.4,71.1
			c0.8,0.9,1.2,1.9,1.2,2.7c0,0.9-0.6,1.6-1.8,2.1c-1.2,0.5-2.6,0.8-4.3,0.8c-1.7,0-3.2-0.1-4.6-0.4c0.9-1.9,2-3.4,3.3-4.7
			c1.3-1.3,2.6-1.9,3.8-1.9C78.8,69.7,79.6,70.2,80.4,71.1 M99.7,66.2c-1.7,0-3.9,0.9-6.5,2.7c-2.6,1.8-3.9,3.5-3.9,5.2
			c0,1,0.5,1.9,1.4,2.8c0.9,0.9,1.9,1.7,3.1,2.3c1.1,0.6,2.1,1.3,3.1,2.2c0.9,0.8,1.4,1.6,1.4,2.4c0,0.7-0.4,1.4-1.3,1.8
			c-0.8,0.5-2.2,0.7-3.9,0.7c-1.8,0-3.5-0.6-5.1-1.7c-0.8-0.6-1.4-0.9-1.8-0.9c-0.7,0-1,0.4-1,1.3c0,0.9,0.9,1.9,2.6,3
			c1.7,1.1,3.7,1.6,6,1.6c2.3,0,4.3-0.6,6-1.7c1.7-1.2,2.5-2.4,2.5-3.6c0-1.3-0.5-2.4-1.4-3.5c-0.9-1.1-1.9-2-3-2.6
			c-1.1-0.7-2.1-1.4-3-2.1c-0.9-0.7-1.4-1.3-1.4-1.8c0-1,0.8-2,2.5-2.9c1.7-0.9,2.9-1.4,3.6-1.4c0.8,0,1.5,0.3,2.3,0.9
			c0.7,0.6,1.3,0.9,1.6,0.9c0.5,0,0.7-0.3,0.7-1c0-0.7-0.5-1.6-1.4-2.8C101.8,66.8,100.8,66.2,99.7,66.2 M107.3,98.4
			c0.2-0.6,0.4-1.4,0.6-2.3c0.2-0.9,0.4-1.7,0.5-2.3c0.1-0.6,0.3-1.4,0.5-2.4c0.2-0.9,0.4-1.6,0.5-2v0c0.5,0.2,1.2,0.3,2,0.3
			c2.1,0,4.4-0.8,6.9-2.4s4.7-3.6,6.5-6c1.8-2.4,2.7-4.7,2.7-6.9s-0.5-4.1-1.5-5.8c-1-1.7-2.1-2.6-3.5-2.6c-3,0-5.9,2-8.9,6
			c0.2-1,0.3-1.8,0.3-2.2c0-1-0.4-2-1.2-2.7s-1.3-1.1-1.7-1.1c-0.4,0-0.7,0.1-0.9,0.2c-0.2,0.1-0.3,0.5-0.4,1.2
			c-0.3,5.7-1.9,14.2-4.8,25.5c-0.9,3.6-1.4,5.7-1.4,6.3c0,0.6,0.2,1.2,0.7,1.8c0.5,0.6,0.8,1,1.1,1c0.3,0,0.5-0.2,0.7-0.5
			c0.2-0.3,0.4-0.7,0.5-1.3C107,99.6,107.2,99,107.3,98.4 M110.3,86.1l1.1-4.6l0,0c1.3-3.4,3-6.1,5.1-8.3c2.1-2.2,3.9-3.3,5.1-3.3
			c1.3,0,1.9,1.4,1.9,4.3c0,2.8-1.4,5.5-4.3,8.1c-2.9,2.6-5.6,3.8-8.3,3.8C110.6,86.1,110.4,86.1,110.3,86.1 M148,68.2
			c-1.3-1.3-2.8-2-4.3-2c-2,0-4.2,1.1-6.5,3.2c-2.3,2.2-4.2,4.6-5.6,7.4c-1.5,2.8-2.2,5.2-2.2,7.1c0,1.4,0.6,2.7,1.9,3.9
			c1.3,1.2,2.6,1.8,4,1.8c1.4,0,2.9-0.5,4.5-1.6c1.6-1,3.1-2.4,4.4-4c0.2,3.7,0.8,5.5,2,5.5c0.5,0,0.9-0.4,1-1.1
			c0.1-0.4,0.1-0.8,0.2-1.2c0-0.4,0.1-0.9,0.1-1.6s0.2-1.4,0.3-2.2c0.2-0.9,0.5-2.1,0.9-3.6c0.4-1.6,0.7-2.5,0.7-2.9
			c0-0.4-0.2-0.8-0.5-1.3c0.8-1.3,1.1-2.4,1.1-3.3C150,70.9,149.3,69.5,148,68.2 M146.6,74.6c-0.4,0.1-0.7,0.4-0.8,0.9
			c-1,3.1-2.6,5.7-4.8,7.7c-2.2,2-4.2,2.9-5.9,2.9c-0.6,0-1.1-0.2-1.5-0.6c-0.4-0.4-0.6-0.8-0.6-1.4c0-1.4,0.6-3.2,1.9-5.4
			c1.2-2.2,2.7-4.2,4.5-6c1.8-1.8,3.3-2.7,4.7-2.7c0.8,0,1.4,0.4,1.9,1.2c0.4,0.8,0.7,1.9,0.7,3.2V74.6z M163,58.6
			c-0.7-1.3-1.3-1.9-1.8-1.9c-0.5,0-1,0.3-1.5,0.8c-0.5,0.5-0.7,1.1-0.7,1.7c0,0.6,0.5,1.4,1.4,2.3c0.9,0.9,1.7,1.3,2.5,1.3
			c0.3,0,0.6-0.1,0.8-0.4c0.3-0.2,0.4-0.5,0.4-0.8C164,60.9,163.7,59.9,163,58.6 M157.5,67.7c-0.2,0.4-0.7,2.5-1.5,6.1
			c-0.9,3.6-1.6,6.6-2.2,8.8c-0.6,2.3-1,3.9-1.2,4.9c-0.1,0.6,0,1.1,0.3,1.5c0.3,0.5,0.7,0.7,1.1,0.7c0.9,0,1.6-0.8,2.1-2.4
			c3.2-10.2,4.9-16.3,4.9-18.2c0-0.6-0.2-1.3-0.7-1.9c-0.5-0.7-1-1-1.5-1C158.2,66.2,157.9,66.7,157.5,67.7"/>
		<path class="st1" d="M190.6,95.1c-12.5,0-22.7,10.1-22.7,22.6c0,6.2,2,11.6,5.8,15.8c4.2,4.8,10.5,7.5,16.8,7.5
			c12.9,0,22.9-10,22.9-23C213.4,105.1,203.4,95.1,190.6,95.1 M190.6,103.5c7.9,0,14.4,6.6,14.4,14.5c0,8.1-6.4,14.6-14.4,14.6
			c-7.9,0-14.2-6.6-14.2-14.8C176.3,110,182.9,103.5,190.6,103.5"/>
	</g>
	<polygon points="111.4,95.2 121,141.3 130.5,141.3 138.5,112.1 146.5,141.3 155.9,141.3 165.5,95.2 156.4,95.2 150.8,123.4 
		142.9,95.2 134.1,95.2 126.2,123.4 120.6,95.2 	"/>
	<polygon points="20.3,95.2 20.3,141.3 29,141.3 29,128.4 38.4,117.9 52.5,141.3 62.6,141.3 44.5,111.3 58.7,95.2 47,95.2 29,115.6 
		29,95.2 	"/>
	<g>
		<defs>
			<rect id="SVGID_5_" x="1.5" y="1.3" width="223.8" height="224.5"/>
		</defs>
		<clipPath id="SVGID_6_">
			<use xlink:href="#SVGID_5_"  style="overflow:visible;"/>
		</clipPath>
		<circle class="st2" cx="83.8" cy="118.4" r="23"/>
		<path class="st3" d="M87.3,106.6c0,0,0.2-1.5-0.3-0.1l-2,5.6c0,0-0.5,1.4-1,0l-2-5.6c0,0-0.5-1.4-0.3,0.1l0.7,5.9
			c0,0,0.2,1.5-0.9,0.5l-4.4-4.2c0,0-1.1-1.1-0.3,0.2l3.3,5.1c0,0,0.8,1.3-0.6,0.8l-5.8-2c0,0-1.4-0.5-0.1,0.3l5.2,3.2
			c0,0,1.3,0.8-0.2,1l-6.2,0.7c0,0-1.5,0.2,0,0.3l6.2,0.7c0,0,1.5,0.2,0.2,1l-5.2,3.2c0,0-1.3,0.8,0.1,0.3l5.8-2
			c0,0,1.4-0.5,0.6,0.8l-3.3,5.1c0,0-0.8,1.3,0.3,0.2l4.4-4.2c0,0,1.1-1.1,0.9,0.5l-0.7,5.9c0,0-0.2,1.5,0.3,0.1l2-5.6
			c0,0,0.5-1.4,1,0l2,5.6c0,0,0.5,1.4,0.3-0.1l-0.7-5.9c0,0-0.2-1.5,0.9-0.5l4.4,4.2c0,0,1.1,1.1,0.3-0.2l-3.3-5.1
			c0,0-0.8-1.3,0.6-0.8l5.8,2c0,0,1.4,0.5,0.1-0.3l-5.2-3.2c0,0-1.3-0.8,0.2-1l6.2-0.7c0,0,1.5-0.2,0-0.3l-6.2-0.7
			c0,0-1.5-0.2-0.2-1l5.2-3.2c0,0,1.3-0.8-0.1-0.3l-5.8,2c0,0-1.4,0.5-0.6-0.8l3.3-5.1c0,0,0.8-1.3-0.3-0.2l-4.4,4.2
			c0,0-1.1,1.1-0.9-0.5L87.3,106.6z"/>
		<path class="st3" d="M73.6,116.7c-0.5-0.2-0.9-1.1,0.3-1.3c1.2-0.1,2.3,1.2,2.3,1.2S74,116.9,73.6,116.7"/>
		<path class="st3" d="M85.1,107.7c-0.1-0.5-0.9-1.1-1.4,0.1c-0.4,1.1,0.7,2.4,0.7,2.4S85.2,108.2,85.1,107.7"/>
		<path class="st3" d="M89.8,109.1c0.1-0.5-0.3-1.4-1.2-0.6c-0.9,0.8-0.6,2.4-0.6,2.4S89.6,109.6,89.8,109.1"/>
		<path class="st3" d="M75.3,111.9c-0.3-0.4-0.3-1.4,0.9-1c1.2,0.4,1.5,2,1.5,2S75.6,112.3,75.3,111.9"/>
		<path class="st3" d="M78.9,109c-0.1-0.5,0.4-1.4,1.2-0.5c0.9,0.9,0.5,2.5,0.5,2.5S79,109.5,78.9,109"/>
		<path class="st3" d="M74.3,121.2c-0.5,0-1.3-0.7-0.2-1.3c1.1-0.6,2.6,0.2,2.6,0.2S74.8,121.2,74.3,121.2"/>
		<path class="st3" d="M79.1,127.8c0,0.5,0.6,1.3,1.3,0.3c0.8-1,0.1-2.5,0.1-2.5S79.1,127.3,79.1,127.8"/>
		<path class="st3" d="M75.4,124.6c-0.2,0.4,0,1.4,1.1,0.8s1.1-2.2,1.1-2.2S75.6,124.2,75.4,124.6"/>
		<path class="st3" d="M88.6,128c0.4,0.3,1.4,0.2,1-0.9c-0.4-1.2-2.1-1.4-2.1-1.4S88.2,127.7,88.6,128"/>
		<path class="st3" d="M83.7,129.1c0.2,0.5,1.1,0.9,1.3-0.3c0.3-1.2-1-2.3-1-2.3S83.5,128.6,83.7,129.1"/>
		<path class="st3" d="M94.9,119.3c0.5,0.2,0.9,1.1-0.3,1.3c-1.2,0.2-2.3-1-2.3-1S94.4,119.2,94.9,119.3"/>
		<path class="st3" d="M93.3,124.1c0.2,0.4,0.1,1.4-1.1,0.8c-1.1-0.6-1.2-2.2-1.2-2.2S93,123.7,93.3,124.1"/>
		<path class="st3" d="M92.4,111.3c0.5-0.1,1.4,0.3,0.6,1.2c-0.9,0.9-2.5,0.5-2.5,0.5S92,111.5,92.4,111.3"/>
		<path class="st3" d="M94.7,115.4c0.5,0.1,1.2,0.8,0,1.3c-1.1,0.5-2.5-0.5-2.5-0.5S94.2,115.3,94.7,115.4"/>
	</g>
</g>
</svg>
